<svg width="48" height="49" viewBox="0 0 48 49" fill="none" xmlns="http://www.w3.org/2000/svg">
<circle cx="24" cy="24" r="24" fill="#57C1EF"/>
<path d="M30.634 6.5C31.0189 5.83333 31.9811 5.83333 32.366 6.5L37.1292 14.75C37.5141 15.4167 37.0329 16.25 36.2631 16.25H26.7369C25.9671 16.25 25.4859 15.4167 25.8708 14.75L30.634 6.5Z" fill="#268327"/>
<path d="M10.067 18.75C10.2594 18.4167 10.7406 18.4167 10.933 18.75L13.9641 24C14.1566 24.3333 13.916 24.75 13.5311 24.75H7.46891C7.08401 24.75 6.84345 24.3333 7.0359 24L10.067 18.75Z" fill="#4DAF4E"/>
<path d="M30.634 11.5C31.0189 10.8333 31.9811 10.8333 32.366 11.5L38.8612 22.75C39.2461 23.4167 38.765 24.25 37.9952 24.25H25.0048C24.235 24.25 23.7539 23.4167 24.1388 22.75L30.634 11.5Z" fill="#268327"/>
<path d="M10.067 21.75C10.2594 21.4167 10.7406 21.4167 10.933 21.75L14.8301 28.5C15.0226 28.8333 14.782 29.25 14.3971 29.25H6.60289C6.21799 29.25 5.97742 28.8333 6.16987 28.5L10.067 21.75Z" fill="#4DAF4E"/>
<path d="M30.634 16.5C31.0189 15.8333 31.9811 15.8333 32.366 16.5L40.5933 30.75C40.9782 31.4167 40.497 32.25 39.7272 32.25H23.2728C22.503 32.25 22.0218 31.4167 22.4067 30.75L30.634 16.5Z" fill="#268327"/>
<path d="M10.067 24.75C10.2594 24.4167 10.7406 24.4167 10.933 24.75L15.6962 33C15.8886 33.3333 15.648 33.75 15.2631 33.75H5.73686C5.35196 33.75 5.1114 33.3333 5.30385 33L10.067 24.75Z" fill="#4DAF4E"/>
<rect x="30" y="32" width="3" height="8" fill="#268327"/>
<rect x="10" y="33" width="1" height="5" fill="#4DAF4E"/>
<path d="M15.7004 46.0419C18.5115 47.2718 22.2849 47.3926 25.4118 47.186C26.9648 47.0833 28.3381 46.9015 29.3228 46.7454C29.5797 46.7047 29.8099 46.6657 30.0098 46.6304C29.9809 46.6014 29.9509 46.5716 29.9199 46.541C29.4474 46.0741 28.7392 45.4172 27.8028 44.6649C25.9294 43.16 23.147 41.2768 19.5174 39.7698C15.9362 38.2829 12.209 37.9593 9.36366 38.0122C7.94343 38.0386 6.74936 38.1586 5.91207 38.2718C5.70318 38.3 5.51661 38.3278 5.3544 38.3536C5.39599 38.409 5.44075 38.4677 5.48874 38.5295C5.88161 39.0357 6.49076 39.7519 7.34706 40.5776C9.05921 42.2286 11.7605 44.3182 15.7004 46.0419Z" fill="#4DAF4E" stroke="#4DAF4E" stroke-linecap="round" stroke-linejoin="round"/>
<path d="M30.8509 46.5228C26.9315 47.7476 23.5052 47.7465 21.0621 47.4409C19.8404 47.2881 18.8654 47.0592 18.1992 46.8698C18.0943 46.84 17.9972 46.8112 17.9079 46.7838C17.9633 46.7298 18.023 46.6722 18.087 46.6113C18.5682 46.1531 19.2897 45.5082 20.2436 44.7697C22.1519 43.2924 24.9869 41.4432 28.6857 39.9633C32.343 38.5001 36.025 38.1301 38.8013 38.1289C40.1877 38.1283 41.3434 38.2197 42.1505 38.3109C42.3331 38.3315 42.4977 38.3521 42.6431 38.3716C42.5673 38.4754 42.4813 38.5903 42.3849 38.7151C41.9123 39.3267 41.1897 40.1745 40.1972 41.1077C38.2124 42.974 35.1514 45.1789 30.8509 46.5228Z" fill="#268327" stroke="#268327" stroke-linecap="round" stroke-linejoin="round"/>
</svg>
