<svg width="48" height="48" viewBox="0 0 48 48" fill="none" xmlns="http://www.w3.org/2000/svg">
<circle cx="24" cy="24" r="24" fill="#474865"/>
<circle cx="18.5" cy="18.5" r="11.5" fill="#FFEDAC"/>
<path d="M38.3569 23.721L38.8029 21.1402C38.8412 20.919 39.1588 20.919 39.1971 21.1402L39.6431 23.721C39.6573 23.8029 39.7207 23.8676 39.8023 23.8833L41.9817 24.3036C42.1979 24.3453 42.1979 24.6547 41.9817 24.6964L39.8023 25.1167C39.7207 25.1324 39.6573 25.1971 39.6431 25.279L39.1971 27.8598C39.1588 28.081 38.8412 28.081 38.8029 27.8598L38.3569 25.279C38.3427 25.1971 38.2793 25.1324 38.1977 25.1167L36.0183 24.6964C35.8021 24.6547 35.8021 24.3453 36.0183 24.3036L38.1977 23.8833C38.2793 23.8676 38.3427 23.8029 38.3569 23.721Z" fill="#FFEDAC"/>
<path d="M13.5227 37.8638L13.8027 36.1837C13.8399 35.9608 14.1601 35.9608 14.1973 36.1837L14.4773 37.8638C14.491 37.9458 14.5539 38.0108 14.6354 38.0271L16.0194 38.3039C16.2338 38.3468 16.2338 38.6532 16.0194 38.6961L14.6354 38.9729C14.5539 38.9892 14.491 39.0542 14.4773 39.1362L14.1973 40.8163C14.1601 41.0392 13.8399 41.0392 13.8027 40.8163L13.5227 39.1362C13.509 39.0542 13.4461 38.9892 13.3646 38.9729L11.9806 38.6961C11.7662 38.6532 11.7662 38.3468 11.9806 38.3039L13.3646 38.0271C13.4461 38.0108 13.509 37.9458 13.5227 37.8638Z" fill="#FFEDAC"/>
<path d="M28.5227 4.86384L28.8027 3.18367C28.8399 2.96085 29.1601 2.96085 29.1973 3.18367L29.4773 4.86384C29.491 4.9458 29.5539 5.01078 29.6354 5.02707L31.0194 5.30388C31.2338 5.34676 31.2338 5.65324 31.0194 5.69612L29.6354 5.97293C29.5539 5.98922 29.491 6.0542 29.4773 6.13616L29.1973 7.81633C29.1601 8.03915 28.8399 8.03915 28.8027 7.81633L28.5227 6.13616C28.509 6.0542 28.4461 5.98922 28.3646 5.97293L26.9806 5.69612C26.7662 5.65324 26.7662 5.34676 26.9806 5.30388L28.3646 5.02707C28.4461 5.01078 28.509 4.9458 28.5227 4.86384Z" fill="#FFEDAC"/>
<path d="M21 42.087C21 39.5332 23.1942 38.6323 24.4582 38.3252C24.9493 38.2059 25.3504 37.7939 25.4287 37.2947C25.7292 35.3792 26.8996 31 31.3223 31C36.983 31 38 35.5 38 35.5C38 35.5 40.04 35.3222 41 35.5C42.0339 35.6915 42.3953 36.9653 42.3953 36.9653C42.3953 36.9653 40.0811 40.4097 36.1896 42.92C30.472 46.6082 25.8748 46.0785 25.374 46.0069C25.3424 46.0024 25.313 45.9988 25.2813 45.9956C24.8108 45.9473 21 45.4525 21 42.087Z" fill="#908EBA" stroke="#908EBA" stroke-width="3"/>
</svg>
