<svg width="48" height="49" viewBox="0 0 48 49" fill="none" xmlns="http://www.w3.org/2000/svg">
<circle cx="24" cy="24" r="24" fill="#9EE2FF"/>
<path d="M48 24C48 27.1517 47.3792 30.2726 46.1731 33.1844C44.967 36.0962 43.1992 38.742 40.9706 40.9706C38.742 43.1992 36.0962 44.967 33.1844 46.1731C30.2726 47.3792 27.1517 48 24 48C20.8483 48 17.7274 47.3792 14.8156 46.1731C11.9038 44.967 9.25804 43.1992 7.02944 40.9706C4.80083 38.742 3.033 36.0962 1.82689 33.1844C0.620778 30.2726 -2.75532e-07 27.1517 0 24L24 24H48Z" fill="#57C1EF"/>
<path d="M24 38.0058C21.2043 38.006 18.7944 41.0931 16 41.0058C14.6801 40.9646 11.2384 38.746 9 38.0004C6.79801 37.2669 5.79913 38.0058 4.5 38.0058C4.5 38.0058 11 48.0058 24 48.0058C37 48.0058 43.5 38 43.5 38C43.5 38 42 37.5 40 38.0058C37.6281 38.6057 33.9446 41.1063 31.5 41.0058C29.2248 40.9123 26.5 38.0057 24 38.0058Z" fill="#FFCEA2"/>
<path d="M32.5 35C31.3954 35 31.1046 33 30 33C28.8954 33 28.1046 35 27 35C25.8954 35 26.1046 33 25 33" stroke="#44B3E6" stroke-width="1.5" stroke-linecap="round" stroke-linejoin="round"/>
<path d="M16.5 30C15.3954 30 15.1046 28 14 28C12.8954 28 12.1046 30 11 30C9.89543 30 10.1046 28 9 28" stroke="#44B3E6" stroke-width="1.5" stroke-linecap="round" stroke-linejoin="round"/>
<path d="M44.5 30C43.3954 30 43.1046 28 42 28C40.8954 28 40.1046 30 39 30C37.8954 30 38.1046 28 37 28" stroke="#44B3E6" stroke-width="1.5" stroke-linecap="round" stroke-linejoin="round"/>
</svg>
